<svg width="25" height="24" viewBox="0 0 25 24" fill="currentColor" xmlns="http://www.w3.org/2000/svg">
<path d="M3.52014 12.649V21.543C3.52014 22.713 4.47014 23.661 5.64014 23.661H11.7102C11.7902 23.661 11.8602 23.631 11.9102 23.578C11.9602 23.525 11.9902 23.453 11.9902 23.379V14.484C11.9902 14.094 12.3102 13.779 12.7002 13.779C13.0902 13.779 13.4102 14.094 13.4102 14.484V23.379C13.4102 23.416 13.4102 23.452 13.4302 23.487C13.4402 23.521 13.4602 23.552 13.4902 23.578C13.5202 23.604 13.5502 23.625 13.5802 23.639C13.6202 23.654 13.6502 23.661 13.6902 23.661H19.7603C20.9303 23.661 21.8802 22.713 21.8802 21.543V12.649C21.8802 12.612 21.8702 12.575 21.8502 12.541C21.8402 12.507 21.8202 12.476 21.7902 12.45C21.7702 12.423 21.7402 12.403 21.7002 12.388C21.6702 12.374 21.6302 12.367 21.5902 12.367H3.81018C3.77018 12.367 3.7302 12.374 3.7002 12.388C3.6602 12.403 3.63023 12.423 3.61023 12.45C3.58023 12.476 3.56016 12.507 3.54016 12.541C3.53016 12.575 3.52014 12.612 3.52014 12.649ZM23.9902 5.308H21.3402C21.6802 4.8 21.8802 4.17904 21.8802 3.53004C21.8802 2.21604 21.1302 1.08603 19.9102 0.593029C18.7002 0.0840293 17.3602 0.353008 16.4402 1.28401L12.7002 5.02504L8.96021 1.28401C8.04021 0.353008 6.70023 0.0840293 5.49023 0.593029C4.27023 1.08603 3.52014 2.21604 3.52014 3.53004C3.52014 4.17904 3.72018 4.8 4.06018 5.308H1.41016C1.01016 5.308 0.700195 5.61799 0.700195 6.01399V10.249C0.700195 10.645 1.01016 10.955 1.41016 10.955H12.0103V7.42604C12.0103 7.03004 12.3002 6.73398 12.7002 6.71998H12.7102C13.1102 6.71998 13.4202 7.03004 13.4202 7.42604V10.955H23.9902C24.3902 10.955 24.7002 10.645 24.7002 10.249V6.01399C24.7002 5.61799 24.3902 5.308 23.9902 5.308ZM6.71021 5.308C5.73021 5.308 4.94019 4.51704 4.94019 3.53004C4.94019 2.65404 5.50016 2.11804 6.04016 1.89204C6.23016 1.80704 6.47022 1.75001 6.73022 1.75001C7.14022 1.75001 7.59021 1.89202 7.97021 2.27302L10.9902 5.308H6.71021ZM18.6902 5.308H14.4102L17.4302 2.27302C18.0502 1.66602 18.8402 1.68004 19.3602 1.89204C19.9002 2.11804 20.4602 2.65404 20.4602 3.53004C20.4602 4.51704 19.6702 5.308 18.6902 5.308Z" fill="url(#paint0_linear_0_53)"/>
<defs>
<linearGradient id="paint0_linear_0_53" x1="12.7002" y1="0.33905" x2="12.7002" y2="23.661" gradientUnits="userSpaceOnUse">
<stop stop-color="#6433C4"/>
<stop offset="1" stop-color="#331684"/>
</linearGradient>
</defs>
</svg>
