<svg width="25" height="24" viewBox="0 0 25 24" fill="none" xmlns="http://www.w3.org/2000/svg">
<path d="M18.8841 18.9318C18.7824 19.0312 18.6934 19.1306 18.5916 19.1796L15.1577 20.7696C15.0177 20.82 14.9287 20.8689 14.776 20.8689H7.05591C6.15289 20.8689 6.15289 19.3783 7.05591 19.3783H13.9748L14.9668 15.8511C15.0177 15.7014 15.0686 15.602 15.1577 15.5027L19.4565 10.4849L20.881 8.79543V6.857H15.6919C14.827 6.857 14.1656 6.11233 14.1656 5.26697V0H3.24033C1.95575 0 0.900146 1.09315 0.900146 2.43539V21.5646C0.900146 22.9068 1.95575 24 3.24033 24H18.5027C19.7872 24 20.8428 22.9068 20.8428 21.5646V16.6462L19.4056 18.3355L18.8841 18.9318ZM14.0129 15.8008H7.05591C6.15289 15.8008 6.15289 14.3102 7.05591 14.3102H14.0129C14.9287 14.3102 14.9287 15.8008 14.0129 15.8008ZM14.6871 9.78919C15.5901 9.78919 15.5901 11.2798 14.6871 11.2798H7.05591C6.15289 11.2798 6.15289 9.78919 7.05591 9.78919H8.0098H14.6871Z" fill="url(#paint0_linear_0_57)"/>
<path d="M15.5393 5.26697C15.5393 5.31732 15.5901 5.36636 15.641 5.36636H20.2197C20.2197 5.31734 20.1687 5.31732 20.1687 5.26697L15.7809 0.695664C15.73 0.646638 15.6411 0.54723 15.5393 0.49688V2.58379V5.26697ZM22.8143 8.69871L23.3231 8.10114L24.9002 9.54674L24.3914 10.1443L22.8143 8.69871ZM16.6331 15.9505L18.261 17.4412L23.463 11.2798L21.8859 9.78919L16.6331 15.9505ZM15.5393 18.9318L17.0146 18.2852L16.0225 17.3418L15.5393 18.9318Z" fill="url(#paint1_linear_0_57)"/>
<defs>
<linearGradient id="paint0_linear_0_57" x1="10.8906" y1="0" x2="10.8906" y2="24" gradientUnits="userSpaceOnUse">
<stop stop-color="#6433C4"/>
<stop offset="1" stop-color="#331684"/>
</linearGradient>
<linearGradient id="paint1_linear_0_57" x1="20.2197" y1="0.49688" x2="20.2197" y2="18.9318" gradientUnits="userSpaceOnUse">
<stop stop-color="#6433C4"/>
<stop offset="1" stop-color="#331684"/>
</linearGradient>
</defs>
</svg>
