<svg width="76" height="55" viewBox="0 0 76 55" fill="none" xmlns="http://www.w3.org/2000/svg">
<path d="M75.1812 50.6904C75.1812 51.593 74.8133 52.4565 74.1826 53.0844C73.5519 53.7123 72.6846 54.0783 71.778 54.0783H31.0494C30.1494 54.0783 29.2861 53.7123 28.6502 53.0844C28.0129 52.4565 27.6555 51.593 27.6555 50.6904C27.6555 45.314 29.8011 40.1599 33.6208 36.3532C37.4444 32.5596 42.6214 30.4142 48.0217 30.4142H54.8149C60.2152 30.4142 65.3922 32.5596 69.2158 36.3532C73.0263 40.1599 75.1812 45.314 75.1812 50.6904ZM51.4118 0C48.7313 0 46.1034 0.797633 43.8697 2.27583C41.636 3.76711 39.9015 5.87339 38.8766 8.34578C37.8386 10.8182 37.5758 13.5394 38.1014 16.1557C38.627 18.785 39.9147 21.192 41.8199 23.0758C43.712 24.9726 46.1297 26.254 48.7707 26.7773C51.3986 27.3005 54.1316 27.0391 56.615 26.0057C59.0983 24.9853 61.2138 23.2588 62.7117 21.035C64.1965 18.8111 64.998 16.1946 64.998 13.526C64.998 9.94166 63.5658 6.50117 61.0168 3.96338C58.4677 1.42559 55.012 0 51.4118 0ZM20.8663 0C18.1819 0 15.5566 0.797633 13.3228 2.27583C11.0904 3.76711 9.35076 5.87339 8.32325 8.34578C7.29443 10.8182 7.02636 13.5394 7.55063 16.1557C8.07358 18.785 9.36652 21.192 11.2665 23.0758C13.1652 24.9726 15.5842 26.254 18.2174 26.7773C20.8518 27.3005 23.5822 27.0391 26.063 26.0057C28.5437 24.9853 30.6644 23.2588 32.1557 21.035C33.6484 18.8111 34.4447 16.1946 34.4447 13.526C34.4447 9.94166 33.0138 6.50117 30.4673 3.96338C27.9209 1.42559 24.4678 0 20.8663 0ZM20.8663 50.6904C20.861 47.1454 21.564 43.6266 22.9331 40.3562C24.3023 37.0728 26.3113 34.1034 28.8433 31.6049C26.7712 30.82 24.5755 30.4273 22.3602 30.4142H19.3736C14.3701 30.4273 9.57543 32.4153 6.03827 35.9342C2.50111 39.4531 0.509198 44.2284 0.5 49.2124V50.6904C0.5 51.593 0.858734 52.4565 1.49469 53.0844C2.13064 53.7123 2.99518 54.0783 3.89524 54.0783H21.4772C21.083 52.9925 20.8755 51.8416 20.8663 50.6904Z" fill="#6433C4"/>
</svg>
