<?xml version="1.0" standalone="no"?>
<!DOCTYPE svg PUBLIC "-//W3C//DTD SVG 20010904//EN"
 "http://www.w3.org/TR/2001/REC-SVG-20010904/DTD/svg10.dtd">
<svg version="1.0" xmlns="http://www.w3.org/2000/svg"
 width="600.000000pt" height="600.000000pt" viewBox="0 0 600.000000 600.000000"
 preserveAspectRatio="xMidYMid meet">

<g transform="translate(0.000000,600.000000) scale(0.100000,-0.100000)"
fill="red" stroke="none">
<path d="M1430 5743 c-42 -27 -91 -77 -107 -106 -8 -16 -13 -30 -11 -31 2 -1
36 33 77 76 40 43 72 78 70 78 -3 0 -16 -7 -29 -17z"/>
<path d="M1535 5736 c-66 -30 -109 -68 -142 -124 -21 -36 -28 -61 -31 -127 -4
-71 -1 -92 25 -168 35 -100 104 -215 173 -290 49 -51 49 -52 50 -24 0 24 7 31
43 45 130 51 315 156 411 234 28 23 28 25 15 68 -34 113 -227 347 -320 390
-62 28 -158 26 -224 -4z"/>
<path d="M4385 5503 c-80 -32 -175 -103 -309 -231 -200 -190 -417 -421 -409
-435 36 -63 108 -155 117 -150 6 4 61 46 121 93 233 183 338 251 469 305 123
50 222 69 360 70 l119 0 -6 65 c-8 92 -32 152 -83 209 -61 68 -124 91 -247 90
-60 0 -106 -6 -132 -16z"/>
<path d="M2770 5092 c0 -5 17 -57 39 -117 l38 -108 66 -17 c72 -19 187 -63
312 -120 l80 -37 91 31 c91 31 92 31 189 134 53 56 94 102 90 102 -4 0 -206
32 -450 70 -496 78 -455 73 -455 62z"/>
<path d="M2318 5003 c-10 -2 -18 -8 -18 -12 0 -8 124 -101 134 -101 3 0 -13
27 -37 60 -23 33 -46 59 -52 59 -5 -1 -18 -3 -27 -6z"/>
<path d="M2663 4877 c-46 -23 -83 -46 -83 -52 0 -5 14 -39 31 -75 l30 -64 28
45 c27 43 72 88 120 119 l23 15 -22 28 c-12 15 -27 27 -33 26 -7 0 -49 -19
-94 -42z"/>
<path d="M4188 4662 c-224 -81 -404 -150 -400 -153 4 -4 115 -30 247 -59 132
-29 247 -56 255 -61 38 -21 -304 2 -407 28 -23 5 -23 4 -23 -85 l0 -91 45 -6
c24 -4 111 -5 192 -3 166 6 218 19 325 84 125 76 259 240 327 401 l30 68 -72
12 c-40 6 -81 12 -92 12 -11 0 -203 -66 -427 -147z"/>
<path d="M840 4564 c-283 -84 -539 -161 -568 -169 l-52 -16 0 -423 c0 -415 0
-424 20 -429 20 -5 20 -15 22 -1053 l3 -1048 91 -35 91 -35 -5 -43 c-4 -38 -1
-48 24 -74 16 -16 47 -41 70 -54 47 -28 1681 -682 1734 -694 19 -5 204 -76
410 -159 513 -205 531 -210 638 -191 78 15 137 48 357 204 105 74 200 139 212
145 23 10 1449 1016 1556 1098 82 62 120 116 115 164 -3 37 -2 39 74 90 l77
53 1 941 0 942 30 12 30 12 0 414 c0 228 -3 414 -7 414 -5 0 -91 14 -193 30
-102 16 -192 30 -200 30 -8 0 -26 -17 -40 -37 -74 -109 -237 -237 -420 -329
l-95 -47 64 -14 65 -13 343 150 c189 82 355 150 369 150 29 0 32 -23 5 -42
-10 -7 -177 -83 -370 -168 l-352 -155 3 -1397 3 -1398 -277 -185 c-153 -102
-279 -185 -281 -185 -2 0 -3 667 -3 1482 l1 1483 -470 116 -470 115 -7 -25
c-4 -14 -10 -64 -14 -111 -6 -76 -3 -94 20 -165 30 -89 111 -265 122 -265 4 0
156 65 338 145 182 79 343 147 358 150 35 9 70 -3 66 -21 -3 -14 -619 -294
-711 -324 -33 -10 -40 -10 -50 4 -11 14 -213 127 -227 126 -3 -1 -14 -20 -25
-43 -11 -23 -36 -52 -55 -65 l-35 -23 -37 43 c-48 56 -94 132 -127 210 -25 61
-26 70 -26 254 0 175 -2 194 -19 213 -11 12 -17 24 -14 26 3 3 34 1 70 -5 49
-7 75 -7 109 3 39 12 41 14 22 21 -13 4 -23 10 -23 14 0 9 101 143 154 207 46
54 43 61 -42 94 -75 30 -92 26 -44 -9 23 -17 42 -35 42 -40 0 -5 -17 -17 -37
-25 -44 -19 -89 -58 -109 -97 -18 -35 -18 -103 1 -121 22 -23 -6 -26 -105 -11
-133 20 -334 90 -355 124 -3 5 -12 10 -18 10 -7 -1 6 -16 27 -35 l39 -35 -99
0 c-181 0 -268 -26 -461 -141 -65 -38 -146 -78 -181 -89 -83 -26 -273 -40
-539 -40 l-212 0 44 95 c45 95 45 96 22 104 -12 5 -82 27 -155 51 -74 23 -132
43 -130 45 1 2 64 -1 138 -5 237 -16 552 -12 607 6 69 23 233 96 233 103 0 10
-580 151 -615 150 -17 0 -262 -70 -545 -155z m1765 -174 c39 -6 137 -26 218
-46 151 -37 207 -64 195 -95 -3 -8 -219 -91 -491 -189 l-485 -175 -6 -100 c-3
-55 -10 -667 -16 -1360 -13 -1636 -13 -1635 -25 -1634 -5 0 -149 50 -319 112
l-310 112 3 270 c1 149 8 749 16 1335 19 1361 19 1371 1 1364 -24 -9 -1068
274 -1090 296 -27 26 -14 50 26 50 18 0 220 -50 448 -111 572 -152 630 -167
630 -159 0 4 55 23 123 43 97 28 146 36 237 41 147 7 214 27 360 112 133 76
235 120 312 133 73 12 93 12 173 1z m317 -27 c65 -26 32 -25 -67 2 -88 24 -88
25 -32 20 31 -3 76 -13 99 -22z m-298 -634 c230 -61 444 -115 476 -120 32 -5
71 -16 86 -24 43 -22 162 -20 224 5 28 11 59 20 70 20 22 0 70 -20 70 -30 0
-3 -35 -22 -77 -42 -53 -24 -83 -46 -95 -65 -9 -16 -21 -73 -28 -133 -10 -96
-22 -176 -36 -240 -11 -49 -23 5 -38 173 -16 178 -26 207 -74 226 -42 16 -405
111 -426 111 -27 0 -669 171 -683 182 -15 12 -6 36 15 41 52 14 133 -3 516
-104z m1704 -570 c-3 -21 -71 -58 -493 -270 -269 -136 -495 -245 -500 -242
-21 8 -34 85 -24 148 14 92 16 94 50 57 17 -18 39 -32 51 -32 17 0 403 161
768 319 47 21 96 42 110 48 30 13 43 4 38 -28z m-1471 -309 l342 -62 30 21
c34 24 39 20 47 -42 8 -55 -2 -113 -20 -120 -13 -5 -213 55 -546 165 -177 58
-260 92 -260 104 0 7 -21 11 407 -66z m479 -1910 c6 -495 6 -536 -10 -549 -15
-12 -20 -11 -44 6 -15 11 -79 45 -142 76 -63 30 -126 65 -139 78 l-24 23 87
83 c48 47 106 93 130 104 33 14 45 26 49 46 10 45 27 261 42 526 8 136 18 253
22 260 16 24 22 -122 29 -653z"/>
<path d="M3258 4403 c7 -3 16 -2 19 1 4 3 -2 6 -13 5 -11 0 -14 -3 -6 -6z"/>
</g>
</svg>
