<svg width="25" height="23" viewBox="0 0 25 23" fill="none" xmlns="http://www.w3.org/2000/svg">
<path d="M3.30002 10C3.10202 10 2.90799 9.94197 2.74399 9.83197C2.57899 9.72197 2.45103 9.566 2.37503 9.383C2.29903 9.2 2.27903 8.99899 2.31803 8.80499C2.35703 8.61099 2.45305 8.43303 2.59305 8.29303L9.499 1.38702C9.687 1.19902 9.94103 1.09399 10.206 1.09399C10.471 1.09399 10.725 1.19902 10.913 1.38702C11.101 1.57502 11.206 1.82899 11.206 2.09399C11.206 2.35899 11.101 2.61303 10.913 2.80103L4.00699 9.70697C3.91399 9.79997 3.80402 9.87401 3.68302 9.92401C3.56102 9.97401 3.43102 10 3.30002 10Z" fill="white"/>
<path d="M11.55 5C11.452 5 11.3541 4.98099 11.2631 4.94299C11.1721 4.90499 11.089 4.85003 11.02 4.78003L7.52002 1.28003C7.41502 1.17503 7.34303 1.042 7.31403 0.895996C7.28503 0.750996 7.29908 0.599975 7.35608 0.461975C7.41308 0.324975 7.50906 0.207977 7.63306 0.125977C7.75606 0.0429766 7.90205 0 8.05005 0H11.55C11.749 0 11.9401 0.0789707 12.0801 0.219971C12.2211 0.359971 12.3 0.551 12.3 0.75V4.25C12.3 4.449 12.2211 4.64003 12.0801 4.78003C11.9401 4.92103 11.749 5 11.55 5ZM7.30005 14.25V20H1.30005V14.25C1.30005 13.56 1.86005 13 2.55005 13H6.05005C6.74005 13 7.30005 13.56 7.30005 14.25ZM15.3 10.25V20H9.30005V10.25C9.30005 9.56 9.86005 9 10.55 9H14.05C14.74 9 15.3 9.56 15.3 10.25ZM23.3 6.25V20H17.3V6.25C17.3 5.56 17.86 5 18.55 5H22.05C22.74 5 23.3 5.56 23.3 6.25ZM23.55 23H1.05005C0.851049 23 0.66002 22.921 0.52002 22.78C0.37902 22.64 0.300049 22.449 0.300049 22.25C0.300049 22.051 0.37902 21.86 0.52002 21.72C0.66002 21.579 0.851049 21.5 1.05005 21.5H23.55C23.749 21.5 23.9401 21.579 24.0801 21.72C24.2211 21.86 24.3 22.051 24.3 22.25C24.3 22.449 24.2211 22.64 24.0801 22.78C23.9401 22.921 23.749 23 23.55 23Z" fill="white"/>
</svg>
