<svg width="25" height="24" viewBox="0 0 25 24" fill="none" xmlns="http://www.w3.org/2000/svg">
<path d="M12.1002 13.091C15.7152 13.091 18.6451 10.16 18.6451 6.54498C18.6451 2.93098 15.7152 0 12.1002 0C8.48516 0 5.55518 2.93098 5.55518 6.54498C5.55518 10.16 8.48516 13.091 12.1002 13.091Z" fill="white"/>
<path d="M21.4151 16.642C20.3841 16.113 18.7411 15.371 16.7771 14.841C16.5041 14.764 16.2171 14.916 16.1221 15.183L13.8861 21.421L13.2091 18.035L14.2541 14.9C14.2821 14.818 14.2891 14.73 14.2761 14.645C14.2631 14.559 14.2291 14.478 14.1791 14.408C14.1281 14.338 14.0621 14.281 13.9851 14.242C13.9081 14.202 13.8231 14.182 13.7361 14.182H10.4641C10.3771 14.182 10.2921 14.202 10.2151 14.242C10.1381 14.281 10.0721 14.338 10.0221 14.408C9.9711 14.478 9.93707 14.559 9.92407 14.645C9.91107 14.73 9.91811 14.818 9.94611 14.9L10.9911 18.035L10.3141 21.421L8.07812 15.183C7.98413 14.916 7.6951 14.765 7.4231 14.841C5.4591 15.371 3.8161 16.113 2.7851 16.642C1.1291 17.492 0.100098 19.17 0.100098 21.02V21.818C0.100098 23.022 1.0791 24 2.2821 24H21.9181C23.1211 24 24.1001 23.022 24.1001 21.818V21.02C24.1001 19.17 23.0711 17.492 21.4151 16.642Z" fill="white"/>
</svg>
